<svg width="67" height="100" viewBox="0 0 67 100" fill="none" xmlns="http://www.w3.org/2000/svg">
<path d="M45.538 49.9933L3.00679 14.7248C1.30917 13.3058 0.245792 11.2752 0.0495151 9.07759C-0.146762 6.87999 0.54005 4.69454 1.95956 2.99982C3.37908 1.3051 5.4156 0.239226 7.62316 0.035613C9.83071 -0.168 12.0294 0.507241 13.7377 1.91347L63.99 43.5875C64.9323 44.3709 65.6902 45.3506 66.2103 46.4575C66.7304 47.5644 67 48.7713 67 49.9932C67 51.2151 66.7304 52.4221 66.2103 53.529C65.6902 54.6358 64.9323 55.6156 63.99 56.399L13.7377 98.0729C12.0302 99.4858 9.82882 100.167 7.61728 99.9654C5.40574 99.7642 3.36486 98.6977 1.94296 97.0002C0.521064 95.3026 -0.16557 93.1127 0.0338978 90.9117C0.233365 88.7106 1.30263 86.6784 3.00679 85.2613L45.538 49.9933Z" fill="black"/>
</svg>
