<svg width="512" height="512" viewBox="0 0 512 512" fill="none" xmlns="http://www.w3.org/2000/svg">
<path d="M0 47.5158C0 35.5925 9.59246 26 21.5158 26H62.3061C82.0289 26 99.5105 37.4751 107.669 54.6877H476.126C499.704 54.6877 516.917 77.1 510.731 99.8709L473.975 236.406C466.355 264.556 440.805 284.189 411.669 284.189H153.031L157.872 309.739C159.844 319.87 168.72 327.221 179.029 327.221H437.488C449.411 327.221 459.003 336.814 459.003 348.737C459.003 360.66 449.411 370.253 437.488 370.253H179.029C148.011 370.253 121.385 348.199 115.647 317.808L69.3884 74.8588C68.7609 71.4521 65.8025 69.0316 62.3061 69.0316H21.5158C9.59246 69.0316 0 59.4391 0 47.5158ZM114.751 441.972C114.751 436.321 115.864 430.725 118.027 425.504C120.189 420.284 123.359 415.54 127.355 411.544C131.35 407.548 136.095 404.378 141.315 402.216C146.536 400.054 152.132 398.94 157.782 398.94C163.433 398.94 169.029 400.054 174.25 402.216C179.47 404.378 184.215 407.548 188.21 411.544C192.206 415.54 195.376 420.284 197.538 425.504C199.701 430.725 200.814 436.321 200.814 441.972C200.814 447.623 199.701 453.218 197.538 458.44C195.376 463.66 192.206 468.404 188.21 472.4C184.215 476.395 179.47 479.565 174.25 481.728C169.029 483.89 163.433 485.004 157.782 485.004C152.132 485.004 146.536 483.89 141.315 481.728C136.095 479.565 131.35 476.395 127.355 472.4C123.359 468.404 120.189 463.66 118.027 458.44C115.864 453.218 114.751 447.623 114.751 441.972ZM415.972 398.94C427.384 398.94 438.33 403.474 446.4 411.544C454.47 419.614 459.003 430.56 459.003 441.972C459.003 453.384 454.47 464.33 446.4 472.4C438.33 480.47 427.384 485.004 415.972 485.004C404.56 485.004 393.614 480.47 385.544 472.4C377.474 464.33 372.94 453.384 372.94 441.972C372.94 430.56 377.474 419.614 385.544 411.544C393.614 403.474 404.56 398.94 415.972 398.94Z" fill="black"/>
</svg>
