<svg width="512" height="512" viewBox="0 0 512 512" fill="none" xmlns="http://www.w3.org/2000/svg">
<path d="M501.685 107.051L400.879 66.7083C398.472 65.7432 395.786 65.7432 393.379 66.7083L292.573 107.051C290.704 107.8 289.102 109.092 287.974 110.76C286.846 112.428 286.242 114.396 286.242 116.41V220.656C286.294 239.81 291.276 258.628 300.708 275.297C310.14 291.966 323.704 305.923 340.093 315.824L391.947 346.948C393.513 347.887 395.304 348.383 397.129 348.383C398.954 348.383 400.745 347.887 402.31 346.948L447.532 319.798V432.757C447.526 437.142 445.783 441.346 442.684 444.447C439.584 447.548 435.383 449.292 431 449.298H40.6779C36.2949 449.292 32.093 447.548 28.9937 444.447C25.8945 441.346 24.151 437.142 24.1457 432.757V207.181H256C258.674 207.181 261.238 206.119 263.128 204.227C265.019 202.336 266.081 199.771 266.081 197.096C266.081 194.421 265.019 191.855 263.128 189.964C261.238 188.073 258.674 187.01 256 187.01H24.1457V163.208C24.151 158.823 25.8945 154.619 28.9937 151.518C32.093 148.417 36.2949 146.673 40.6779 146.667H256C258.674 146.667 261.238 145.605 263.128 143.713C265.019 141.822 266.081 139.257 266.081 136.582C266.081 133.907 265.019 131.342 263.128 129.45C261.238 127.559 258.674 126.496 256 126.496H40.6779C30.9478 126.501 21.6178 130.371 14.7376 137.255C7.8574 144.138 3.98978 153.473 3.98444 163.208V432.697C3.98978 442.432 7.8574 451.766 14.7376 458.65C21.6178 465.534 30.9478 469.403 40.6779 469.409H431C440.73 469.403 450.06 465.534 456.94 458.65C463.82 451.766 467.688 442.432 467.693 432.697V306.021C480.251 295.604 490.37 282.557 497.337 267.8C504.305 253.043 507.95 236.936 508.016 220.615V116.41C508.015 114.396 507.412 112.428 506.284 110.76C505.155 109.092 503.554 107.8 501.685 107.051ZM487.854 220.656C487.813 236.329 483.736 251.727 476.016 265.365C468.297 279.003 457.195 290.421 443.782 298.517L397.129 326.535L350.476 298.517C337.062 290.421 325.961 279.003 318.241 265.365C310.521 251.727 306.444 236.329 306.403 220.656V123.228L397.129 86.9199L487.854 123.228V220.656Z" fill="black"/>
<path d="M363.946 191.69C363.01 190.752 361.898 190.008 360.675 189.5C359.452 188.992 358.14 188.73 356.816 188.729C355.491 188.728 354.18 188.988 352.955 189.495C351.731 190.001 350.619 190.743 349.682 191.68C348.744 192.616 348.001 193.728 347.493 194.952C346.985 196.176 346.723 197.488 346.722 198.813C346.722 200.139 346.981 201.451 347.488 202.676C347.994 203.9 348.736 205.013 349.672 205.951L376.567 232.839C378.457 234.73 381.021 235.792 383.694 235.792C386.367 235.792 388.93 234.73 390.821 232.839L444.591 179.042C446.481 177.149 447.542 174.581 447.54 171.905C447.538 169.228 446.474 166.662 444.581 164.771C442.688 162.88 440.122 161.819 437.447 161.821C434.771 161.822 432.207 162.887 430.317 164.781L383.684 211.458L363.946 191.69ZM74.5513 388.723C71.8777 388.723 69.3137 389.786 67.4232 391.677C65.5327 393.569 64.4706 396.134 64.4706 398.809C64.4706 401.484 65.5327 404.049 67.4232 405.941C69.3137 407.832 71.8777 408.895 74.5513 408.895H155.196C157.87 408.895 160.434 407.832 162.324 405.941C164.215 404.049 165.277 401.484 165.277 398.809C165.277 396.134 164.215 393.569 162.324 391.677C160.434 389.786 157.87 388.723 155.196 388.723H74.5513Z" fill="black"/>
<path fill-rule="evenodd" clip-rule="evenodd" d="M503.168 103.353C505.775 104.398 508.01 106.201 509.584 108.528C511.158 110.855 511.999 113.6 512 116.409V220.632C511.932 237.535 508.156 254.217 500.94 269.501C493.993 284.217 484.018 297.291 471.677 307.873V432.699C471.672 443.489 467.385 453.836 459.758 461.467C452.131 469.097 441.788 473.387 431.002 473.393H40.6757C29.889 473.387 19.5462 469.097 11.9195 461.467C4.2928 453.836 0.0059216 443.489 7.12473e-07 432.699L0 163.206C0.0059216 152.415 4.2928 142.068 11.9195 134.438C19.5462 126.807 29.889 122.518 40.6757 122.512H256C259.731 122.512 263.309 123.994 265.946 126.633C268.584 129.272 270.065 132.851 270.065 136.582C270.065 140.313 268.584 143.891 265.946 146.53C263.309 149.169 259.731 150.652 256 150.652H40.6828C37.3555 150.656 34.1652 151.98 31.8119 154.335C29.4591 156.689 28.1349 159.88 28.1301 163.21V183.026H256C259.731 183.026 263.309 184.508 265.946 187.147C268.584 189.786 270.065 193.365 270.065 197.096C270.065 200.827 268.584 204.405 265.946 207.044C263.309 209.683 259.731 211.166 256 211.166H28.1301V432.755C28.1349 436.085 29.4591 439.277 31.8119 441.631C34.1652 443.985 37.3555 445.309 40.6828 445.313H430.995C434.322 445.309 437.512 443.985 439.866 441.631C442.219 439.276 443.543 436.083 443.547 432.752V326.837L404.361 350.364L404.359 350.366C402.174 351.675 399.676 352.367 397.129 352.367C394.582 352.367 392.083 351.675 389.898 350.366L389.897 350.365L338.032 319.234C321.058 308.979 307.009 294.523 297.24 277.259C287.471 259.995 282.311 240.505 282.257 220.667V116.41C282.258 113.601 283.099 110.855 284.673 108.528C286.248 106.201 288.482 104.398 291.09 103.353L391.896 63.01C395.255 61.6633 399.003 61.6633 402.362 63.01L503.168 103.353ZM400.879 66.7083C398.472 65.7432 395.786 65.7432 393.379 66.7083L292.573 107.051C290.704 107.8 289.102 109.092 287.974 110.76C286.846 112.428 286.242 114.396 286.242 116.41V220.656C286.294 239.81 291.276 258.628 300.708 275.297C310.14 291.966 323.704 305.923 340.093 315.824L391.947 346.948C393.513 347.887 395.304 348.383 397.129 348.383C398.954 348.383 400.745 347.887 402.31 346.948L447.532 319.798V432.757C447.526 437.142 445.783 441.346 442.684 444.447C439.584 447.548 435.383 449.292 431 449.298H40.6779C36.2949 449.292 32.093 447.548 28.9937 444.447C25.8945 441.346 24.151 437.142 24.1457 432.757V207.181H256C258.674 207.181 261.238 206.119 263.128 204.227C265.019 202.336 266.081 199.771 266.081 197.096C266.081 194.421 265.019 191.855 263.128 189.964C261.238 188.073 258.674 187.01 256 187.01H24.1457V163.208C24.151 158.823 25.8945 154.619 28.9937 151.518C32.093 148.417 36.2949 146.673 40.6779 146.667H256C258.674 146.667 261.238 145.605 263.128 143.713C265.019 141.822 266.081 139.257 266.081 136.582C266.081 133.907 265.019 131.342 263.128 129.45C261.238 127.559 258.674 126.496 256 126.496H40.6779C30.9478 126.501 21.6178 130.371 14.7376 137.255C7.8574 144.138 3.98978 153.473 3.98444 163.208V432.697C3.98978 442.432 7.8574 451.766 14.7376 458.65C21.6178 465.534 30.9478 469.403 40.6779 469.409H431C440.73 469.403 450.06 465.534 456.94 458.65C463.82 451.766 467.688 442.432 467.693 432.697V306.021C480.251 295.604 490.37 282.557 497.337 267.8C504.305 253.043 507.95 236.936 508.016 220.615V116.41C508.015 114.396 507.412 112.428 506.284 110.76C505.155 109.092 503.554 107.8 501.685 107.051L400.879 66.7083ZM390.821 232.839C388.93 234.73 386.367 235.792 383.694 235.792C381.021 235.792 378.457 234.73 376.567 232.839L349.672 205.951C348.736 205.013 347.994 203.9 347.488 202.676C346.981 201.451 346.722 200.139 346.722 198.813C346.723 197.488 346.985 196.176 347.493 194.952C348.001 193.728 348.744 192.616 349.682 191.68C350.619 190.743 351.731 190.001 352.955 189.495C354.18 188.988 355.491 188.728 356.816 188.729C358.14 188.73 359.452 188.992 360.675 189.5C361.898 190.008 363.01 190.752 363.946 191.69L383.684 211.458L430.317 164.781C432.207 162.887 434.771 161.822 437.447 161.821C440.122 161.819 442.688 162.88 444.581 164.771C446.474 166.662 447.538 169.228 447.54 171.905C447.542 174.581 446.481 177.149 444.591 179.042L390.821 232.839ZM427.496 161.967C430.133 159.325 433.711 157.839 437.444 157.836C441.176 157.834 444.756 159.314 447.397 161.953C450.037 164.59 451.522 168.169 451.524 171.902C451.527 175.634 450.048 179.215 447.411 181.857L447.409 181.859L393.639 235.656C391.001 238.294 387.424 239.777 383.694 239.777C379.964 239.777 376.387 238.295 373.75 235.657L346.855 208.769L346.851 208.766C345.546 207.458 344.511 205.905 343.805 204.197C343.099 202.489 342.737 200.659 342.738 198.81C342.739 196.962 343.104 195.132 343.813 193.425C344.521 191.718 345.558 190.167 346.866 188.861C348.173 187.555 349.725 186.519 351.433 185.813C353.14 185.106 354.971 184.743 356.819 184.745C358.667 184.746 360.496 185.112 362.203 185.82C363.91 186.529 365.46 187.567 366.766 188.875L383.684 205.819L427.496 161.967ZM472.549 263.402C479.931 250.36 483.83 235.634 483.87 220.645V125.925L397.129 91.2116L310.388 125.925V220.645C310.427 235.634 314.326 250.36 321.709 263.402C329.091 276.444 339.707 287.362 352.533 295.105C352.534 295.105 352.534 295.106 352.535 295.106L397.129 321.887L441.723 295.106C441.723 295.106 441.724 295.105 441.724 295.105C454.551 287.362 465.167 276.444 472.549 263.402ZM443.782 298.517C457.195 290.421 468.297 279.003 476.016 265.365C483.736 251.727 487.813 236.329 487.854 220.656V123.228L397.129 86.9199L306.403 123.228V220.656C306.444 236.329 310.521 251.727 318.241 265.365C325.961 279.003 337.062 290.421 350.476 298.517L397.129 326.535L443.782 298.517ZM64.6051 388.861C67.2426 386.222 70.8203 384.739 74.5513 384.739H155.196C158.927 384.739 162.505 386.222 165.142 388.861C167.78 391.499 169.261 395.078 169.261 398.809C169.261 402.54 167.78 406.119 165.142 408.757C162.505 411.396 158.927 412.879 155.196 412.879H74.5513C70.8204 412.879 67.2426 411.396 64.6051 408.757C61.9676 406.119 60.4862 402.54 60.4862 398.809C60.4862 395.078 61.9676 391.499 64.6051 388.861ZM67.4232 391.677C69.3137 389.786 71.8777 388.723 74.5513 388.723H155.196C157.87 388.723 160.434 389.786 162.324 391.677C164.215 393.569 165.277 396.134 165.277 398.809C165.277 401.484 164.215 404.049 162.324 405.941C160.434 407.832 157.87 408.895 155.196 408.895H74.5513C71.8777 408.895 69.3137 407.832 67.4232 405.941C65.5327 404.049 64.4706 401.484 64.4706 398.809C64.4706 396.134 65.5327 393.569 67.4232 391.677Z" fill="black"/>
</svg>
