<svg width="100" height="70" viewBox="0 0 100 70" fill="none" xmlns="http://www.w3.org/2000/svg">
<path fill-rule="evenodd" clip-rule="evenodd" d="M0 5C0 2.23858 2.23858 0 5 0H95C97.7614 0 100 2.23858 100 5C100 7.76142 97.7614 10 95 10H5C2.23858 10 0 7.76142 0 5ZM0 35.0001C0 32.2387 2.23858 30.0001 5 30.0001H95C97.7614 30.0001 100 32.2387 100 35.0001C100 37.7615 97.7614 40.0001 95 40.0001H5C2.23858 40.0001 0 37.7615 0 35.0001ZM0 65.0001C0 62.2387 2.23858 60.0001 5 60.0001H95C97.7614 60.0001 100 62.2387 100 65.0001C100 67.7615 97.7614 70.0001 95 70.0001H5C2.23858 70.0001 0 67.7615 0 65.0001Z" fill="black"/>
</svg>
