<svg width="512" height="512" viewBox="0 0 512 512" fill="none" xmlns="http://www.w3.org/2000/svg">
<path fill-rule="evenodd" clip-rule="evenodd" d="M69.3884 74.8588C68.7609 71.4521 65.8024 69.0316 62.3061 69.0316H21.5158C9.59245 69.0316 0 59.4391 0 47.5158C0 35.5925 9.59245 26 21.5158 26H62.3061C82.0289 26 99.5105 37.4751 107.669 54.6877H476.126C499.704 54.6877 516.917 77.1 510.731 99.8709L473.975 236.407C466.355 264.556 440.805 284.189 411.669 284.189H136.183L141.024 309.74C141.107 310.169 141.196 310.618 141.291 311.084C141.406 311.65 141.53 312.241 141.665 312.854L141.674 312.894C143.932 323.135 149.216 339.288 165.821 340.973C166.751 341.068 167.717 341.117 168.72 341.117H427.178C439.101 341.117 448.694 343.089 448.694 355.012C448.694 366.936 439.101 370.253 427.178 370.253H179.029C172.287 370.253 165.752 369.211 159.594 367.267C137.422 360.271 120.138 341.593 115.647 317.808L69.3884 74.8588ZM131.503 257.295L98.0466 81.5825H476.126C482.056 81.5825 486.297 87.2237 484.777 92.8204L484.761 92.8796L448.014 229.379L448.01 229.395C443.544 245.867 428.594 257.295 411.669 257.295H131.503Z" fill="black"/>
<path fill-rule="evenodd" clip-rule="evenodd" d="M118.026 425.504C115.864 430.725 114.751 436.321 114.751 441.972C114.751 447.623 115.864 453.219 118.026 458.439C120.189 463.66 123.359 468.404 127.355 472.4C131.35 476.396 136.094 479.565 141.315 481.728C146.536 483.891 152.131 485.004 157.782 485.004C163.433 485.004 169.029 483.891 174.25 481.728C179.471 479.565 184.214 476.396 188.21 472.4C192.206 468.404 195.376 463.66 197.538 458.439C199.701 453.219 200.814 447.623 200.814 441.972C200.814 436.321 199.701 430.725 197.538 425.504C195.376 420.284 192.206 415.54 188.21 411.544C184.214 407.548 179.471 404.379 174.25 402.216C169.029 400.053 163.433 398.94 157.782 398.94C152.131 398.94 146.536 400.053 141.315 402.216C136.094 404.379 131.35 407.548 127.355 411.544C123.359 415.54 120.189 420.284 118.026 425.504ZM142.874 435.797C142.063 437.754 141.646 439.853 141.646 441.972C141.646 444.091 142.063 446.189 142.874 448.147C143.685 450.105 144.874 451.884 146.372 453.382C147.87 454.881 149.649 456.07 151.607 456.88C153.565 457.691 155.663 458.109 157.782 458.109C159.902 458.109 162 457.691 163.958 456.88C165.916 456.07 167.694 454.881 169.193 453.382C170.691 451.884 171.88 450.105 172.691 448.147C173.502 446.189 173.919 444.091 173.919 441.972C173.919 439.853 173.502 437.754 172.691 435.797C171.88 433.839 170.691 432.06 169.193 430.561C167.694 429.063 165.916 427.874 163.958 427.063C162 426.253 159.902 425.835 157.782 425.835C155.663 425.835 153.565 426.253 151.607 427.063C149.649 427.874 147.87 429.063 146.372 430.561C144.874 432.06 143.685 433.839 142.874 435.797Z" fill="black"/>
<path fill-rule="evenodd" clip-rule="evenodd" d="M446.4 411.544C438.33 403.474 427.385 398.94 415.972 398.94C404.559 398.94 393.614 403.474 385.544 411.544C377.474 419.614 372.94 430.559 372.94 441.972C372.94 453.385 377.474 464.33 385.544 472.4C393.614 480.47 404.559 485.004 415.972 485.004C427.385 485.004 438.33 480.47 446.4 472.4C454.47 464.33 459.003 453.385 459.003 441.972C459.003 430.559 454.47 419.614 446.4 411.544ZM427.382 430.561C424.356 427.535 420.252 425.835 415.972 425.835C411.692 425.835 407.588 427.535 404.561 430.561C401.535 433.588 399.835 437.692 399.835 441.972C399.835 446.252 401.535 450.356 404.561 453.382C407.588 456.409 411.692 458.109 415.972 458.109C420.252 458.109 424.356 456.409 427.382 453.382C430.409 450.356 432.109 446.252 432.109 441.972C432.109 437.692 430.409 433.588 427.382 430.561Z" fill="black"/>
</svg>
