<svg width="100" height="100" viewBox="0 0 100 100" fill="none" xmlns="http://www.w3.org/2000/svg">
<path d="M11.4083 1.95734C8.79855 -0.652447 4.56718 -0.652447 1.95734 1.95734C-0.652447 4.56718 -0.652447 8.79855 1.95734 11.4083L40.5489 49.9998L1.95774 88.5912C-0.652047 91.2009 -0.652047 95.4324 1.95774 98.0421C4.56758 100.652 8.79888 100.652 11.4087 98.0421L49.9998 59.4506L88.5912 98.0421C91.2009 100.652 95.4324 100.652 98.0421 98.0421C100.652 95.4324 100.652 91.2009 98.0421 88.5912L59.4506 49.9998L98.0427 11.4083C100.652 8.79855 100.652 4.56718 98.0427 1.95734C95.4331 -0.652447 91.2015 -0.652447 88.5919 1.95734L49.9998 40.5489L11.4083 1.95734Z" fill="black"/>
</svg>
