<svg width="512" height="512" viewBox="0 0 512 512" fill="none" xmlns="http://www.w3.org/2000/svg">
<g clip-path="url(#clip0_50_120)">
<path d="M510.677 293.348L484.761 253.737C473.317 236.233 453.874 225.781 432.738 225.781H365.714V187.252C365.714 163.727 346.563 144.597 323.014 144.597H197.544C190.504 107.867 158.138 80 119.345 80C75.419 80 39.6857 115.7 39.6857 159.576C39.6857 187.166 53.8274 211.502 75.2369 225.782H8.13095C3.6381 225.782 0.00119187 229.415 0.00119187 233.902C0.00119187 238.389 3.6381 242.022 8.12976 242.022H89.3988V258.258H56.8869C55.8197 258.258 54.7629 258.468 53.777 258.877C52.791 259.285 51.8952 259.883 51.1408 260.637C50.3864 261.391 49.7881 262.286 49.3801 263.271C48.9721 264.257 48.7625 265.312 48.7631 266.378C48.7625 267.444 48.9722 268.5 49.3802 269.485C49.7882 270.47 50.3866 271.364 51.1411 272.118C51.8956 272.872 52.7914 273.47 53.7773 273.877C54.7632 274.285 55.8199 274.494 56.8869 274.494H89.3976V290.729H8.12857C7.06108 290.728 6.00396 290.938 5.01762 291.346C4.03128 291.754 3.13506 292.352 2.38018 293.106C1.62529 293.86 1.02654 294.755 0.618138 295.74C0.209735 296.725 -0.000311525 297.781 1.39602e-06 298.848C-0.000624461 299.914 0.209192 300.971 0.617454 301.956C1.02572 302.942 1.62442 303.837 2.37934 304.591C3.13425 305.345 4.03058 305.944 5.01707 306.352C6.00357 306.76 7.06088 306.969 8.12857 306.969H89.3976V342.924C75.0702 349.237 65.0167 363.516 65.0167 380.138V388.151C65.0167 390.305 65.8729 392.37 67.397 393.892C68.9212 395.415 70.9884 396.271 73.1441 396.271H145.224C149.846 416.135 167.676 431 188.95 431C210.231 431 228.055 416.135 232.677 396.271H389.035C393.662 416.135 411.49 431 432.761 431C454.032 431 471.865 416.135 476.488 396.271H503.874C504.941 396.271 505.998 396.062 506.984 395.654C507.97 395.246 508.866 394.647 509.621 393.893C510.375 393.139 510.973 392.244 511.381 391.259C511.789 390.273 511.999 389.217 511.998 388.151V297.789C511.998 296.212 511.539 294.669 510.676 293.348H510.677ZM55.9393 159.574C55.9393 124.651 84.3845 96.2341 119.345 96.2341C154.311 96.2341 182.752 124.651 182.752 159.574C182.752 194.498 154.312 222.915 119.345 222.915C84.3845 222.915 55.9393 194.498 55.9393 159.574ZM105.65 306.969H121.902C122.97 306.97 124.028 306.76 125.014 306.352C126.001 305.944 126.897 305.346 127.652 304.592C128.407 303.837 129.006 302.942 129.415 301.956C129.823 300.971 130.033 299.914 130.032 298.848C130.033 297.781 129.823 296.725 129.414 295.74C129.006 294.754 128.407 293.859 127.652 293.105C126.897 292.35 126.001 291.752 125.014 291.345C124.027 290.937 122.97 290.727 121.902 290.728H105.65V274.492H162.543C163.61 274.493 164.666 274.283 165.652 273.876C166.638 273.468 167.534 272.87 168.288 272.117C169.042 271.363 169.64 270.468 170.048 269.483C170.456 268.498 170.666 267.443 170.665 266.377C170.666 265.311 170.456 264.255 170.048 263.27C169.64 262.285 169.042 261.39 168.288 260.636C167.533 259.882 166.638 259.284 165.652 258.875C164.666 258.467 163.609 258.257 162.542 258.257H105.65V242.02H211.3C215.788 242.02 219.429 238.388 219.429 233.9C219.429 229.411 215.788 225.78 211.3 225.78H163.454C184.533 211.718 198.517 187.897 198.944 160.833H323.019C337.598 160.833 349.46 172.687 349.46 187.251V339.438H105.754C105.721 339.438 105.688 339.448 105.651 339.448L105.65 306.969ZM349.46 380.031H233.417C232.138 370.693 227.99 362.276 221.865 355.676H349.461L349.46 380.031ZM105.752 355.676H156.036C149.917 362.276 145.763 370.693 144.489 380.031H81.269C81.3238 366.597 92.2893 355.676 105.752 355.676ZM188.951 414.765C173.144 414.765 160.277 401.915 160.277 386.121C160.277 370.332 173.144 357.478 188.951 357.478C204.762 357.478 217.625 370.332 217.625 386.121C217.625 401.915 204.762 414.765 188.951 414.765ZM432.761 414.765C416.955 414.765 404.088 401.915 404.088 386.121C404.088 370.332 416.955 357.478 432.762 357.478C448.571 357.478 461.435 370.332 461.435 386.121C461.435 401.915 448.571 414.765 432.761 414.765ZM495.745 380.031H477.226C474.236 358.165 455.458 341.242 432.761 341.242C410.062 341.242 391.289 358.165 388.294 380.031H365.712V242.022H432.738C448.358 242.022 462.724 249.719 471.158 262.615L495.745 300.205V380.031Z" fill="black"/>
<path d="M446.06 386.121C446.06 393.456 440.108 399.402 432.765 399.402C425.422 399.402 419.47 393.456 419.47 386.121C419.47 378.786 425.422 372.84 432.765 372.84C440.108 372.84 446.06 378.786 446.06 386.121ZM202.249 386.121C202.249 393.456 196.297 399.402 188.954 399.402C181.616 399.402 175.664 393.456 175.664 386.121C175.664 378.786 181.616 372.84 188.954 372.84C196.297 372.84 202.249 378.786 202.249 386.121ZM130.035 159.574V124.056C130.035 122.99 129.825 121.934 129.417 120.949C129.008 119.963 128.409 119.068 127.654 118.315C126.899 117.561 126.003 116.963 125.016 116.556C124.03 116.149 122.973 115.94 121.905 115.941C120.838 115.94 119.782 116.15 118.796 116.557C117.81 116.965 116.914 117.562 116.16 118.316C115.405 119.07 114.807 119.965 114.399 120.95C113.991 121.934 113.781 122.99 113.782 124.056V156.926L97.195 179.657C96.5657 180.517 96.1125 181.493 95.8612 182.529C95.6099 183.564 95.5655 184.639 95.7304 185.692C95.8954 186.745 96.2666 187.755 96.8226 188.664C97.3787 189.573 98.1088 190.364 98.9712 190.991C100.358 192.01 102.035 192.558 103.757 192.557C105.038 192.559 106.302 192.257 107.444 191.676C108.586 191.095 109.574 190.252 110.327 189.216L128.477 164.355C129.489 162.966 130.035 161.293 130.035 159.574ZM430.026 250.136H414.479C413.412 250.136 412.354 250.345 411.368 250.753C410.381 251.161 409.485 251.759 408.73 252.514C407.975 253.268 407.376 254.163 406.968 255.149C406.56 256.134 406.35 257.191 406.351 258.257V315.084C406.35 316.151 406.56 317.207 406.968 318.192C407.377 319.177 407.975 320.073 408.73 320.827C409.485 321.581 410.382 322.179 411.368 322.587C412.354 322.995 413.412 323.205 414.479 323.204H469.176C474.273 323.204 478.835 320.57 481.392 316.171C483.951 311.771 483.955 306.503 481.434 302.115L462.457 268.932C455.83 257.346 443.399 250.136 430.026 250.136ZM422.609 306.969V266.377H430.026C433.744 266.38 437.395 267.363 440.611 269.227C443.827 271.09 446.494 273.768 448.342 276.991L465.489 306.969H422.609Z" fill="black"/>
</g>
<defs>
<clipPath id="clip0_50_120">
<rect width="512" height="512" fill="white"/>
</clipPath>
</defs>
</svg>
