<svg width="512" height="512" viewBox="0 0 512 512" fill="none" xmlns="http://www.w3.org/2000/svg">
<path d="M256 333.159C244.148 333.159 236.247 325.258 236.247 313.406C238.222 287.727 252.049 265.999 271.802 250.197C283.654 238.345 295.506 226.493 295.506 214.641C295.506 192.913 277.728 175.136 256 175.136C234.272 175.136 216.494 192.913 216.494 214.641C216.494 226.493 208.593 234.394 196.741 234.394C184.89 234.394 176.989 226.493 176.989 214.641C176.989 171.185 212.544 135.63 256 135.63C299.456 135.63 335.012 171.185 335.012 214.641C333.036 240.32 319.209 262.048 299.456 277.851C287.605 289.702 275.753 301.554 275.753 313.406C275.753 325.258 267.852 333.159 256 333.159Z" fill="black"/>
<path d="M256 392.417C266.909 392.417 275.753 383.574 275.753 372.664C275.753 361.755 266.909 352.912 256 352.912C245.091 352.912 236.247 361.755 236.247 372.664C236.247 383.574 245.091 392.417 256 392.417Z" fill="black"/>
<path d="M26.8666 506.984C20.9408 503.033 18.9655 495.132 18.9655 487.231L36.7431 386.491C-36.3426 265.999 3.16319 107.976 123.656 36.8655C244.148 -34.2448 402.171 3.28562 475.257 123.778C548.343 244.271 508.837 402.294 388.344 475.379C309.333 522.786 208.593 524.762 129.582 477.355L48.5948 510.935C38.7184 512.91 32.7925 510.935 26.8666 506.984ZM129.582 435.874C133.532 435.874 137.483 437.849 139.458 439.824C242.173 505.009 376.493 473.404 439.702 372.664C502.911 271.925 473.282 135.63 372.542 72.4207C271.802 9.21149 137.483 34.8902 72.2982 137.605C26.8666 208.716 26.8666 301.554 72.2982 372.664C74.2735 376.615 76.2488 382.541 74.2735 386.491L62.4218 459.577L119.705 435.874H129.582Z" fill="black"/>
</svg>
